<svg xmlns="http://www.w3.org/2000/svg" viewBox="0 0 100 100" width="24" height="24">
  <path d="
    M 0,3 
    C 0,1.5 1.5,0 3,0 
    H 23 
    C 24.5,0 25.8,1 26.5,2.5 
    L 28.72,6.5 
    C 29,7.2 29.7,7.5 30.5,7.5 
    H 97 
    C 98.5,7.5 100,9 100,10.5 
    V 89.5 
    C 100,91 98.5,92.5 97,92.5 
    L 47.86,92.85 
    C 46.5,92.9 45.3,93.8 44.8,95 
    L 42.51,99 
    H 32.92 
    C 31.5,99 30.3,98 29.8,96.7 
    L 28.72,92.63 
    C 28.4,91.8 27.6,91.3 26.7,91.3 
    H 11.22 
    C 9.8,91.3 8.5,92.3 8,93.6 
    L 6.91,97 
    H 3 
    C 1.5,97 0,95.5 0,94 
    Z" fill="#000000"/>
</svg>